<?xml version="1.0" standalone="no"?>
<!DOCTYPE svg PUBLIC "-//W3C//DTD SVG 20010904//EN"
 "http://www.w3.org/TR/2001/REC-SVG-20010904/DTD/svg10.dtd">
<svg version="1.0" xmlns="http://www.w3.org/2000/svg"
 width="94.000000pt" height="94.000000pt" viewBox="0 0 94.000000 94.000000"
 preserveAspectRatio="xMidYMid meet">
<metadata>
Created by potrace 1.11, written by Peter Selinger 2001-2013
</metadata>
<g transform="translate(0.000000,94.000000) scale(0.100000,-0.100000)"
fill="#000000" stroke="none">
<path d="M0 470 l0 -370 470 0 470 0 0 370 0 370 -470 0 -470 0 0 -370z m474
68 c4 -112 9 -229 12 -260 l6 -58 -57 0 -58 0 5 118 c2 64 2 149 -1 187 l-6
70 -19 -138 -19 -138 -51 3 -50 3 -16 107 c-8 59 -18 110 -22 114 -5 4 -8 -63
-8 -149 l0 -157 -50 0 -49 0 5 208 c3 114 7 222 10 240 l5 32 68 0 68 0 17
-127 c9 -70 18 -129 20 -130 4 -4 22 117 32 210 l7 67 72 0 72 0 7 -202z m349
-49 c4 -138 4 -255 1 -260 -3 -5 -24 -9 -47 -9 l-43 0 -38 128 c-21 71 -42
135 -46 142 -5 8 -6 -44 -3 -118 l6 -132 -46 0 -47 0 0 240 0 240 50 0 c35 0
50 -4 50 -13 0 -7 18 -72 40 -143 l40 -129 -5 153 -6 152 44 0 44 0 6 -251z"/>
</g>
</svg>
