<?xml version="1.0" standalone="no"?>
<!DOCTYPE svg PUBLIC "-//W3C//DTD SVG 20010904//EN"
 "http://www.w3.org/TR/2001/REC-SVG-20010904/DTD/svg10.dtd">
<svg version="1.0" xmlns="http://www.w3.org/2000/svg"
 width="94.000000pt" height="94.000000pt" viewBox="0 0 94.000000 94.000000"
 preserveAspectRatio="xMidYMid meet">
<metadata>
Created by potrace 1.11, written by Peter Selinger 2001-2013
</metadata>
<g transform="translate(0.000000,94.000000) scale(0.100000,-0.100000)"
fill="#000000" stroke="none">
<path d="M0 470 l0 -370 470 0 470 0 0 370 0 370 -470 0 -470 0 0 -370z m474
28 c4 -134 9 -251 12 -260 5 -16 -2 -18 -45 -18 l-51 0 -1 163 c-2 233 -11
254 -34 80 l-19 -143 -48 0 c-55 0 -50 -9 -69 135 -20 151 -28 139 -28 -42
l-1 -173 -50 0 -49 0 5 138 c2 75 7 183 10 240 l6 102 68 0 67 0 7 -57 c27
-242 34 -249 56 -53 7 63 15 118 17 123 2 4 35 7 72 7 l68 0 7 -242z m348 -10
c2 -160 -1 -256 -7 -261 -5 -4 -26 -6 -45 -5 l-34 3 -42 138 c-23 76 -45 141
-49 145 -4 4 -5 -55 -1 -130 l7 -138 -46 0 -45 0 0 234 0 234 23 6 c36 10 67
7 71 -6 3 -7 21 -69 41 -138 44 -151 57 -170 51 -75 -3 39 -8 109 -11 158 l-5
87 45 0 44 0 3 -252z"/>
</g>
</svg>
