<?xml version="1.0" standalone="no"?>
<!DOCTYPE svg PUBLIC "-//W3C//DTD SVG 20010904//EN"
 "http://www.w3.org/TR/2001/REC-SVG-20010904/DTD/svg10.dtd">
<svg version="1.0" xmlns="http://www.w3.org/2000/svg"
 width="94.000000pt" height="94.000000pt" viewBox="0 0 94.000000 94.000000"
 preserveAspectRatio="xMidYMid meet">
<metadata>
Created by potrace 1.11, written by Peter Selinger 2001-2013
</metadata>
<g transform="translate(0.000000,94.000000) scale(0.100000,-0.100000)"
fill="#000000" stroke="none">
<path d="M0 470 l0 -370 470 0 470 0 0 370 0 370 -470 0 -470 0 0 -370z m450
270 l27 0 6 -257 c4 -141 6 -258 4 -259 -1 -1 -26 -5 -54 -9 l-53 -7 0 173 c0
95 -2 170 -4 168 -2 -2 -9 -42 -15 -89 -20 -150 -15 -140 -76 -140 l-53 0 -12
88 c-17 126 -18 123 -19 -35 l-1 -141 -56 0 -57 1 7 241 c4 132 8 242 9 242 1
1 35 4 75 6 84 6 74 21 93 -142 7 -58 13 -100 15 -95 2 6 10 63 18 128 9 65
19 123 22 129 4 6 24 8 52 4 25 -3 57 -6 72 -6z m378 -257 l3 -263 -28 0 c-15
0 -37 -3 -49 -6 -18 -5 -24 5 -53 103 -51 170 -52 170 -47 41 l4 -118 -54 0
-54 0 0 240 0 240 54 0 55 0 16 -57 c9 -32 27 -92 40 -133 l24 -75 -5 105 c-3
58 -7 121 -9 141 -3 20 -2 39 2 43 4 4 28 6 53 4 l45 -3 3 -262z"/>
</g>
</svg>
